<svg width="34" height="34" viewBox="0 0 34 34" fill="none" xmlns="http://www.w3.org/2000/svg">
<path d="M31.9991 24.4611V28.9774C32.0061 30.7038 30.4538 32.1455 28.7107 31.9882C13.6667 32 2 20.225 2.01177 5.28198C1.85479 3.54825 3.2893 2.00177 5.01352 2.00015H9.53877C10.2708 1.99296 10.9805 2.25167 11.5356 2.72807C13.1136 4.08249 14.1286 8.67962 13.7381 10.5071C13.4332 11.9339 11.9949 12.9322 11.017 13.9081C13.1643 17.677 16.2911 20.7976 20.0675 22.9406C21.0454 21.9647 22.0456 20.5293 23.4752 20.225C25.3092 19.8346 29.9359 20.8511 31.2849 22.4401C31.7633 23.0035 32.0174 23.7228 31.9991 24.4611Z" stroke="#FFC928" stroke-width="2.5" stroke-linecap="round" stroke-linejoin="round"/>
</svg>
